<?xml version="1.0" standalone="no"?>
<!DOCTYPE svg PUBLIC "-//W3C//DTD SVG 20010904//EN"
 "http://www.w3.org/TR/2001/REC-SVG-20010904/DTD/svg10.dtd">
<svg version="1.0" xmlns="http://www.w3.org/2000/svg"
 width="2500.000000pt" height="2500.000000pt" viewBox="0 0 2500.000000 2500.000000"
 preserveAspectRatio="xMidYMid meet">

<g transform="translate(0.000000,2500.000000) scale(0.100000,-0.100000)"
fill="#000000" stroke="none">
<path d="M1111 15919 c-268 -31 -541 -167 -741 -368 -173 -175 -279 -366 -343
-621 l-21 -85 -4 -2280 c-2 -1650 0 -2306 8 -2373 72 -587 531 -1045 1115
-1112 126 -14 22624 -14 22750 0 580 67 1034 516 1114 1103 8 54 11 789 11
2320 0 2443 2 2335 -56 2527 -146 479 -572 833 -1069 890 -112 12 -22654 12
-22764 -1z m619 -1709 c0 -894 0 -912 21 -972 38 -114 106 -189 217 -241 233
-109 514 38 562 293 6 33 10 388 10 941 l0 889 460 0 460 0 1 -487 c0 -478 0
-489 22 -545 44 -115 124 -195 237 -239 77 -31 203 -31 283 0 75 29 148 88
193 155 68 103 68 98 72 634 l3 482 455 0 454 0 0 -877 c0 -503 4 -903 10
-936 15 -95 55 -170 126 -236 76 -71 147 -102 254 -108 162 -11 317 84 389
236 l26 56 3 933 2 932 460 0 460 0 0 -460 c0 -297 4 -478 11 -512 34 -164
167 -289 339 -320 166 -29 343 68 423 231 l32 66 3 498 3 497 459 0 460 0 2
-927 3 -928 32 -67 c41 -88 113 -160 201 -201 61 -29 75 -32 167 -32 91 0 106
3 165 31 82 40 136 87 177 155 65 108 63 80 63 1071 l0 898 460 0 459 0 3
-497 3 -498 32 -68 c77 -163 255 -258 426 -228 174 30 304 158 337 331 6 30
10 243 10 506 l0 454 458 -2 457 -3 5 -930 5 -930 33 -67 c41 -84 128 -167
209 -199 82 -33 224 -33 306 0 127 50 229 186 248 327 4 38 8 459 9 937 l0
867 455 0 455 0 0 -454 c0 -261 4 -476 10 -507 32 -173 166 -302 344 -331 126
-21 285 40 364 140 18 22 45 67 60 99 l27 58 3 498 3 497 459 0 460 0 0 -898
c0 -991 -2 -963 63 -1071 41 -68 95 -115 177 -155 60 -28 73 -31 166 -31 96 0
103 2 176 38 91 44 146 102 192 197 l31 65 3 928 2 927 460 0 459 0 3 -497 3
-498 32 -66 c80 -163 258 -260 425 -230 139 24 250 109 311 239 l32 67 3 493
3 492 459 0 460 0 2 -932 3 -933 27 -55 c133 -270 476 -322 675 -102 38 43 80
133 92 197 7 39 11 348 11 942 l0 883 455 0 455 0 0 -437 c0 -241 5 -469 10
-508 26 -179 158 -315 339 -346 167 -30 347 66 426 226 l30 60 5 500 5 500
458 3 457 2 0 -889 c0 -558 4 -908 10 -942 23 -124 109 -233 228 -291 62 -30
75 -33 167 -33 92 0 106 3 166 31 78 37 136 87 177 152 64 100 62 64 62 1064
l0 908 250 0 c265 0 321 -7 408 -47 68 -32 163 -120 201 -187 65 -113 61 52
61 -2384 0 -2437 4 -2274 -60 -2387 -62 -109 -185 -198 -308 -224 -76 -16
-22569 -16 -22644 0 -121 26 -247 117 -307 222 -65 115 -61 -50 -61 2380 0
1429 4 2223 10 2258 31 164 176 314 345 355 32 8 141 13 308 13 l257 1 0 -910z"/>
</g>
</svg>
